<?xml version="1.0" encoding="UTF-8" standalone="no"?><svg xmlns="http://www.w3.org/2000/svg" xmlns:xlink="http://www.w3.org/1999/xlink" contentStyleType="text/css" height="321px" preserveAspectRatio="none" style="width:743px;height:321px;background:#FFFFFF;" version="1.1" viewBox="0 0 743 321" width="743px" zoomAndPan="magnify"><defs/><g><line style="stroke:#181818;stroke-width:0.5;stroke-dasharray:5.0,5.0;" x1="79" x2="79" y1="36.2969" y2="286.2266"/><line style="stroke:#181818;stroke-width:0.5;stroke-dasharray:5.0,5.0;" x1="340" x2="340" y1="36.2969" y2="286.2266"/><line style="stroke:#181818;stroke-width:0.5;stroke-dasharray:5.0,5.0;" x1="502" x2="502" y1="36.2969" y2="286.2266"/><line style="stroke:#181818;stroke-width:0.5;stroke-dasharray:5.0,5.0;" x1="680" x2="680" y1="36.2969" y2="286.2266"/><rect fill="#E2E2F0" height="30.2969" rx="2.5" ry="2.5" style="stroke:#181818;stroke-width:0.5;" width="148" x="5" y="5"/><text fill="#000000" font-family="sans-serif" font-size="14" lengthAdjust="spacing" textLength="134" x="12" y="24.9951">CoordinatorLayout</text><rect fill="#E2E2F0" height="30.2969" rx="2.5" ry="2.5" style="stroke:#181818;stroke-width:0.5;" width="148" x="5" y="285.2266"/><text fill="#000000" font-family="sans-serif" font-size="14" lengthAdjust="spacing" textLength="134" x="12" y="305.2217">CoordinatorLayout</text><rect fill="#E2E2F0" height="30.2969" rx="2.5" ry="2.5" style="stroke:#181818;stroke-width:0.5;" width="84" x="298" y="5"/><text fill="#000000" font-family="sans-serif" font-size="14" lengthAdjust="spacing" textLength="70" x="305" y="24.9951">ChildView</text><rect fill="#E2E2F0" height="30.2969" rx="2.5" ry="2.5" style="stroke:#181818;stroke-width:0.5;" width="84" x="298" y="285.2266"/><text fill="#000000" font-family="sans-serif" font-size="14" lengthAdjust="spacing" textLength="70" x="305" y="305.2217">ChildView</text><rect fill="#E2E2F0" height="30.2969" rx="2.5" ry="2.5" style="stroke:#181818;stroke-width:0.5;" width="221" x="392" y="5"/><text fill="#000000" font-family="sans-serif" font-size="14" lengthAdjust="spacing" textLength="207" x="399" y="24.9951">ChildView_AttachedBehavior</text><rect fill="#E2E2F0" height="30.2969" rx="2.5" ry="2.5" style="stroke:#181818;stroke-width:0.5;" width="221" x="392" y="285.2266"/><text fill="#000000" font-family="sans-serif" font-size="14" lengthAdjust="spacing" textLength="207" x="399" y="305.2217">ChildView_AttachedBehavior</text><rect fill="#E2E2F0" height="30.2969" rx="2.5" ry="2.5" style="stroke:#181818;stroke-width:0.5;" width="114" x="623" y="5"/><text fill="#000000" font-family="sans-serif" font-size="14" lengthAdjust="spacing" textLength="100" x="630" y="24.9951">LayoutParams</text><rect fill="#E2E2F0" height="30.2969" rx="2.5" ry="2.5" style="stroke:#181818;stroke-width:0.5;" width="114" x="623" y="285.2266"/><text fill="#000000" font-family="sans-serif" font-size="14" lengthAdjust="spacing" textLength="100" x="630" y="305.2217">LayoutParams</text><line style="stroke:#181818;stroke-width:1.0;" x1="79" x2="121" y1="67.4297" y2="67.4297"/><line style="stroke:#181818;stroke-width:1.0;" x1="121" x2="121" y1="67.4297" y2="80.4297"/><line style="stroke:#181818;stroke-width:1.0;" x1="80" x2="121" y1="80.4297" y2="80.4297"/><polygon fill="#181818" points="90,76.4297,80,80.4297,90,84.4297,86,80.4297" style="stroke:#181818;stroke-width:1.0;"/><text fill="#000000" font-family="sans-serif" font-size="13" lengthAdjust="spacing" textLength="247" x="86" y="62.3638">getResolvedLayoutParams (childView)</text><polygon fill="#181818" points="328,105.5625,338,109.5625,328,113.5625,332,109.5625" style="stroke:#181818;stroke-width:1.0;"/><line style="stroke:#181818;stroke-width:1.0;" x1="79" x2="334" y1="109.5625" y2="109.5625"/><text fill="#000000" font-family="sans-serif" font-size="13" lengthAdjust="spacing" textLength="173" x="86" y="104.4966">取得 LayoutParams (result)</text><polygon fill="#181818" points="328,134.6953,338,138.6953,328,142.6953,332,138.6953" style="stroke:#181818;stroke-width:1.0;"/><line style="stroke:#181818;stroke-width:1.0;" x1="79" x2="334" y1="138.6953" y2="138.6953"/><text fill="#000000" font-family="sans-serif" font-size="13" lengthAdjust="spacing" textLength="183" x="86" y="133.6294">檢查是否為 AttachedBehavior</text><polygon fill="#181818" points="490.5,163.8281,500.5,167.8281,490.5,171.8281,494.5,167.8281" style="stroke:#181818;stroke-width:1.0;"/><line style="stroke:#181818;stroke-width:1.0;" x1="79" x2="496.5" y1="167.8281" y2="167.8281"/><text fill="#000000" font-family="sans-serif" font-size="13" lengthAdjust="spacing" textLength="213" x="86" y="162.7622">取得 Behavior (attachedBehavior)</text><polygon fill="#181818" points="668,192.9609,678,196.9609,668,200.9609,672,196.9609" style="stroke:#181818;stroke-width:1.0;"/><line style="stroke:#181818;stroke-width:1.0;" x1="79" x2="674" y1="196.9609" y2="196.9609"/><text fill="#000000" font-family="sans-serif" font-size="13" lengthAdjust="spacing" textLength="199" x="86" y="191.895">setBehavior(attachedBehavior)</text><polygon fill="#181818" points="668,222.0938,678,226.0938,668,230.0938,672,226.0938" style="stroke:#181818;stroke-width:1.0;"/><line style="stroke:#181818;stroke-width:1.0;" x1="79" x2="674" y1="226.0938" y2="226.0938"/><text fill="#000000" font-family="sans-serif" font-size="13" lengthAdjust="spacing" textLength="172" x="86" y="221.0278">mBehaviorResolved = true</text><line style="stroke:#181818;stroke-width:1.0;" x1="79" x2="121" y1="255.2266" y2="255.2266"/><line style="stroke:#181818;stroke-width:1.0;" x1="121" x2="121" y1="255.2266" y2="268.2266"/><line style="stroke:#181818;stroke-width:1.0;" x1="80" x2="121" y1="268.2266" y2="268.2266"/><polygon fill="#181818" points="90,264.2266,80,268.2266,90,272.2266,86,268.2266" style="stroke:#181818;stroke-width:1.0;"/><text fill="#000000" font-family="sans-serif" font-size="13" lengthAdjust="spacing" textLength="238" x="86" y="250.1606">回傳此 LayoutParams 至 prepareChild</text><!--SRC=[SyxFBqh9p4iioI_oIQpCBorHqBLJS4ONj598Joq9IYtEpobBJO481IGM9UOMAsWaPsJcf8HbffPhSZbZDGichs2byBH_sjDzqnLG3IXABIxDAI52zxDLYvxDN_finlgd4vOzRzgbu5XIafYSaPhYb9gHM9QPNqJ0X7XqzN3tm0GKD1BHbE1m5Oe7h1IAKqjW6iWq8HUc71R62hOA9KMbgJYyX1azJsVFUzgq-TdQ9QWclsZVh51Gb5gGM9GA3WS0]--></g></svg>