<?xml version="1.0" encoding="UTF-8" standalone="no"?><svg xmlns="http://www.w3.org/2000/svg" xmlns:xlink="http://www.w3.org/1999/xlink" contentStyleType="text/css" height="247px" preserveAspectRatio="none" style="width:509px;height:247px;background:#FFFFFF;" version="1.1" viewBox="0 0 509 247" width="509px" zoomAndPan="magnify"><defs/><g><line style="stroke:#181818;stroke-width:0.5;stroke-dasharray:5.0,5.0;" x1="51" x2="51" y1="36.2969" y2="211.8281"/><line style="stroke:#181818;stroke-width:0.5;stroke-dasharray:5.0,5.0;" x1="461" x2="461" y1="36.2969" y2="211.8281"/><rect fill="#E2E2F0" height="30.2969" rx="2.5" ry="2.5" style="stroke:#181818;stroke-width:0.5;" width="92" x="5" y="5"/><text fill="#000000" font-family="sans-serif" font-size="14" lengthAdjust="spacing" textLength="78" x="12" y="24.9951">ViewGroup</text><rect fill="#E2E2F0" height="30.2969" rx="2.5" ry="2.5" style="stroke:#181818;stroke-width:0.5;" width="92" x="5" y="210.8281"/><text fill="#000000" font-family="sans-serif" font-size="14" lengthAdjust="spacing" textLength="78" x="12" y="230.8232">ViewGroup</text><rect fill="#E2E2F0" height="30.2969" rx="2.5" ry="2.5" style="stroke:#181818;stroke-width:0.5;" width="84" x="419" y="5"/><text fill="#000000" font-family="sans-serif" font-size="14" lengthAdjust="spacing" textLength="70" x="426" y="24.9951">ChildView</text><rect fill="#E2E2F0" height="30.2969" rx="2.5" ry="2.5" style="stroke:#181818;stroke-width:0.5;" width="84" x="419" y="210.8281"/><text fill="#000000" font-family="sans-serif" font-size="14" lengthAdjust="spacing" textLength="70" x="426" y="230.8232">ChildView</text><line style="stroke:#181818;stroke-width:1.0;" x1="51" x2="93" y1="67.4297" y2="67.4297"/><line style="stroke:#181818;stroke-width:1.0;" x1="93" x2="93" y1="67.4297" y2="80.4297"/><line style="stroke:#181818;stroke-width:1.0;" x1="52" x2="93" y1="80.4297" y2="80.4297"/><polygon fill="#181818" points="62,76.4297,52,80.4297,62,84.4297,58,80.4297" style="stroke:#181818;stroke-width:1.0;"/><text fill="#000000" font-family="sans-serif" font-size="13" lengthAdjust="spacing" textLength="140" x="58" y="62.3638">draw(Canvas canvas)</text><line style="stroke:#181818;stroke-width:1.0;" x1="51" x2="93" y1="109.5625" y2="109.5625"/><line style="stroke:#181818;stroke-width:1.0;" x1="93" x2="93" y1="109.5625" y2="122.5625"/><line style="stroke:#181818;stroke-width:1.0;" x1="52" x2="93" y1="122.5625" y2="122.5625"/><polygon fill="#181818" points="62,118.5625,52,122.5625,62,126.5625,58,122.5625" style="stroke:#181818;stroke-width:1.0;"/><text fill="#000000" font-family="sans-serif" font-size="13" lengthAdjust="spacing" textLength="196" x="58" y="104.4966">dispatchDraw(Canvas canvas)</text><line style="stroke:#181818;stroke-width:1.0;" x1="51" x2="93" y1="151.6953" y2="151.6953"/><line style="stroke:#181818;stroke-width:1.0;" x1="93" x2="93" y1="151.6953" y2="164.6953"/><line style="stroke:#181818;stroke-width:1.0;" x1="52" x2="93" y1="164.6953" y2="164.6953"/><polygon fill="#181818" points="62,160.6953,52,164.6953,62,168.6953,58,164.6953" style="stroke:#181818;stroke-width:1.0;"/><text fill="#000000" font-family="sans-serif" font-size="13" lengthAdjust="spacing" textLength="365" x="58" y="146.6294">drawChild(Canvas canvas, View child, long drawingTime)</text><polygon fill="#181818" points="449,189.8281,459,193.8281,449,197.8281,453,193.8281" style="stroke:#181818;stroke-width:1.0;"/><line style="stroke:#181818;stroke-width:1.0;" x1="51" x2="455" y1="193.8281" y2="193.8281"/><text fill="#000000" font-family="sans-serif" font-size="13" lengthAdjust="spacing" textLength="386" x="58" y="188.7622">draw(Canvas canvas, ViewGroup parent, long drawingTime)</text><!--MD5=[7946e3498c5ab492132419521dd9d61a]
@startuml
ViewGroup -> ViewGroup : draw(Canvas canvas)
ViewGroup -> ViewGroup : dispatchDraw(Canvas canvas)
ViewGroup -> ViewGroup : drawChild(Canvas canvas, View child, long drawingTime)
ViewGroup -> ChildView : draw(Canvas canvas, ViewGroup parent, long drawingTime)
@enduml

PlantUML version 1.2022.8beta2(Unknown compile time)
(GPL source distribution)
Java Runtime: Java(TM) SE Runtime Environment
JVM: Java HotSpot(TM) 64-Bit Server VM
Default Encoding: UTF-8
Language: en
Country: US
--></g></svg>