<?xml version="1.0" encoding="UTF-8" standalone="no"?><svg xmlns="http://www.w3.org/2000/svg" xmlns:xlink="http://www.w3.org/1999/xlink" contentStyleType="text/css" height="447px" preserveAspectRatio="none" style="width:879px;height:447px;background:#FFFFFF;" version="1.1" viewBox="0 0 879 447" width="879px" zoomAndPan="magnify"><defs/><g><line style="stroke:#181818;stroke-width:0.5;stroke-dasharray:5.0,5.0;" x1="43" x2="43" y1="36.2969" y2="412.625"/><line style="stroke:#181818;stroke-width:0.5;stroke-dasharray:5.0,5.0;" x1="260.5" x2="260.5" y1="36.2969" y2="412.625"/><line style="stroke:#181818;stroke-width:0.5;stroke-dasharray:5.0,5.0;" x1="444.5" x2="444.5" y1="36.2969" y2="412.625"/><line style="stroke:#181818;stroke-width:0.5;stroke-dasharray:5.0,5.0;" x1="625.5" x2="625.5" y1="36.2969" y2="412.625"/><line style="stroke:#181818;stroke-width:0.5;stroke-dasharray:5.0,5.0;" x1="801.5" x2="801.5" y1="36.2969" y2="412.625"/><rect fill="#E2E2F0" height="30.2969" rx="2.5" ry="2.5" style="stroke:#181818;stroke-width:0.5;" width="77" x="5" y="5"/><text fill="#000000" font-family="sans-serif" font-size="14" lengthAdjust="spacing" textLength="63" x="12" y="24.9951">LiveData</text><rect fill="#E2E2F0" height="30.2969" rx="2.5" ry="2.5" style="stroke:#181818;stroke-width:0.5;" width="77" x="5" y="411.625"/><text fill="#000000" font-family="sans-serif" font-size="14" lengthAdjust="spacing" textLength="63" x="12" y="431.6201">LiveData</text><rect fill="#E2E2F0" height="30.2969" rx="2.5" ry="2.5" style="stroke:#181818;stroke-width:0.5;" width="138" x="191.5" y="5"/><text fill="#000000" font-family="sans-serif" font-size="14" lengthAdjust="spacing" textLength="124" x="198.5" y="24.9951">LifecycleRegistry</text><rect fill="#E2E2F0" height="30.2969" rx="2.5" ry="2.5" style="stroke:#181818;stroke-width:0.5;" width="138" x="191.5" y="411.625"/><text fill="#000000" font-family="sans-serif" font-size="14" lengthAdjust="spacing" textLength="124" x="198.5" y="431.6201">LifecycleRegistry</text><rect fill="#E2E2F0" height="30.2969" rx="2.5" ry="2.5" style="stroke:#181818;stroke-width:0.5;" width="154" x="367.5" y="5"/><text fill="#000000" font-family="sans-serif" font-size="14" lengthAdjust="spacing" textLength="140" x="374.5" y="24.9951">ObserverWithState</text><rect fill="#E2E2F0" height="30.2969" rx="2.5" ry="2.5" style="stroke:#181818;stroke-width:0.5;" width="154" x="367.5" y="411.625"/><text fill="#000000" font-family="sans-serif" font-size="14" lengthAdjust="spacing" textLength="140" x="374.5" y="431.6201">ObserverWithState</text><rect fill="#E2E2F0" height="30.2969" rx="2.5" ry="2.5" style="stroke:#181818;stroke-width:0.5;" width="189" x="531.5" y="5"/><text fill="#000000" font-family="sans-serif" font-size="14" lengthAdjust="spacing" textLength="175" x="538.5" y="24.9951">LifecycleBoundObserver</text><rect fill="#E2E2F0" height="30.2969" rx="2.5" ry="2.5" style="stroke:#181818;stroke-width:0.5;" width="189" x="531.5" y="411.625"/><text fill="#000000" font-family="sans-serif" font-size="14" lengthAdjust="spacing" textLength="175" x="538.5" y="431.6201">LifecycleBoundObserver</text><rect fill="#E2E2F0" height="30.2969" rx="2.5" ry="2.5" style="stroke:#181818;stroke-width:0.5;" width="143" x="730.5" y="5"/><text fill="#000000" font-family="sans-serif" font-size="14" lengthAdjust="spacing" textLength="129" x="737.5" y="24.9951">ObserverWrapper</text><rect fill="#E2E2F0" height="30.2969" rx="2.5" ry="2.5" style="stroke:#181818;stroke-width:0.5;" width="143" x="730.5" y="411.625"/><text fill="#000000" font-family="sans-serif" font-size="14" lengthAdjust="spacing" textLength="129" x="737.5" y="431.6201">ObserverWrapper</text><line style="stroke:#181818;stroke-width:1.0;" x1="43.5" x2="85.5" y1="67.4297" y2="67.4297"/><line style="stroke:#181818;stroke-width:1.0;" x1="85.5" x2="85.5" y1="67.4297" y2="80.4297"/><line style="stroke:#181818;stroke-width:1.0;" x1="44.5" x2="85.5" y1="80.4297" y2="80.4297"/><polygon fill="#181818" points="54.5,76.4297,44.5,80.4297,54.5,84.4297,50.5,80.4297" style="stroke:#181818;stroke-width:1.0;"/><text fill="#000000" font-family="sans-serif" font-size="13" lengthAdjust="spacing" textLength="52" x="50.5" y="62.3638">observe</text><line style="stroke:#181818;stroke-width:1.0;" x1="43.5" x2="85.5" y1="109.5625" y2="109.5625"/><line style="stroke:#181818;stroke-width:1.0;" x1="85.5" x2="85.5" y1="109.5625" y2="122.5625"/><line style="stroke:#181818;stroke-width:1.0;" x1="44.5" x2="85.5" y1="122.5625" y2="122.5625"/><polygon fill="#181818" points="54.5,118.5625,44.5,122.5625,54.5,126.5625,50.5,122.5625" style="stroke:#181818;stroke-width:1.0;"/><text fill="#000000" font-family="sans-serif" font-size="13" lengthAdjust="spacing" textLength="203" x="50.5" y="104.4966">create_LifecycleBoundObserver</text><line style="stroke:#181818;stroke-width:1.0;" x1="43.5" x2="85.5" y1="151.6953" y2="151.6953"/><line style="stroke:#181818;stroke-width:1.0;" x1="85.5" x2="85.5" y1="151.6953" y2="164.6953"/><line style="stroke:#181818;stroke-width:1.0;" x1="44.5" x2="85.5" y1="164.6953" y2="164.6953"/><polygon fill="#181818" points="54.5,160.6953,44.5,164.6953,54.5,168.6953,50.5,164.6953" style="stroke:#181818;stroke-width:1.0;"/><text fill="#000000" font-family="sans-serif" font-size="13" lengthAdjust="spacing" textLength="162" x="50.5" y="146.6294">create_ObserverWrapper</text><polygon fill="#181818" points="248.5,189.8281,258.5,193.8281,248.5,197.8281,252.5,193.8281" style="stroke:#181818;stroke-width:1.0;"/><line style="stroke:#181818;stroke-width:1.0;" x1="43.5" x2="254.5" y1="193.8281" y2="193.8281"/><text fill="#000000" font-family="sans-serif" font-size="13" lengthAdjust="spacing" textLength="83" x="50.5" y="188.7622">addObserver</text><line style="stroke:#181818;stroke-width:1.0;" x1="260.5" x2="302.5" y1="222.9609" y2="222.9609"/><line style="stroke:#181818;stroke-width:1.0;" x1="302.5" x2="302.5" y1="222.9609" y2="235.9609"/><line style="stroke:#181818;stroke-width:1.0;" x1="261.5" x2="302.5" y1="235.9609" y2="235.9609"/><polygon fill="#181818" points="271.5,231.9609,261.5,235.9609,271.5,239.9609,267.5,235.9609" style="stroke:#181818;stroke-width:1.0;"/><text fill="#000000" font-family="sans-serif" font-size="13" lengthAdjust="spacing" textLength="170" x="267.5" y="217.895">create_ObserverWithState</text><line style="stroke:#181818;stroke-width:1.0;" x1="260.5" x2="302.5" y1="265.0938" y2="265.0938"/><line style="stroke:#181818;stroke-width:1.0;" x1="302.5" x2="302.5" y1="265.0938" y2="278.0938"/><line style="stroke:#181818;stroke-width:1.0;" x1="261.5" x2="302.5" y1="278.0938" y2="278.0938"/><polygon fill="#181818" points="271.5,274.0938,261.5,278.0938,271.5,282.0938,267.5,278.0938" style="stroke:#181818;stroke-width:1.0;"/><text fill="#000000" font-family="sans-serif" font-size="13" lengthAdjust="spacing" textLength="67" x="267.5" y="260.0278">while_loop</text><polygon fill="#181818" points="432.5,303.2266,442.5,307.2266,432.5,311.2266,436.5,307.2266" style="stroke:#181818;stroke-width:1.0;"/><line style="stroke:#181818;stroke-width:1.0;" x1="260.5" x2="438.5" y1="307.2266" y2="307.2266"/><text fill="#000000" font-family="sans-serif" font-size="13" lengthAdjust="spacing" textLength="91" x="267.5" y="302.1606">dispatchEvent</text><polygon fill="#181818" points="614,332.3594,624,336.3594,614,340.3594,618,336.3594" style="stroke:#181818;stroke-width:1.0;"/><line style="stroke:#181818;stroke-width:1.0;" x1="444.5" x2="620" y1="336.3594" y2="336.3594"/><text fill="#000000" font-family="sans-serif" font-size="13" lengthAdjust="spacing" textLength="107" x="451.5" y="331.2935">onStateChanged</text><polygon fill="#181818" points="790,361.4922,800,365.4922,790,369.4922,794,365.4922" style="stroke:#181818;stroke-width:1.0;"/><line style="stroke:#181818;stroke-width:1.0;" x1="626" x2="796" y1="365.4922" y2="365.4922"/><text fill="#000000" font-family="sans-serif" font-size="13" lengthAdjust="spacing" textLength="130" x="633" y="360.4263">activeStateChanged</text><polygon fill="#181818" points="54.5,390.625,44.5,394.625,54.5,398.625,50.5,394.625" style="stroke:#181818;stroke-width:1.0;"/><line style="stroke:#181818;stroke-width:1.0;" x1="48.5" x2="801" y1="394.625" y2="394.625"/><text fill="#000000" font-family="sans-serif" font-size="13" lengthAdjust="spacing" textLength="109" x="60.5" y="389.5591">dispatchingValue</text><!--MD5=[48e454f0c9e4078e68d7a6faa84a4d56]
@startuml
LiveData -> LiveData : observe
LiveData -> LiveData : create_LifecycleBoundObserver
LiveData -> LiveData : create_ObserverWrapper
LiveData -> LifecycleRegistry : addObserver
LifecycleRegistry -> LifecycleRegistry : create_ObserverWithState
LifecycleRegistry -> LifecycleRegistry : while_loop
LifecycleRegistry -> ObserverWithState : dispatchEvent
ObserverWithState -> LifecycleBoundObserver : onStateChanged
LifecycleBoundObserver -> ObserverWrapper : activeStateChanged
ObserverWrapper -> LiveData : dispatchingValue
@enduml

PlantUML version 1.2022.9(Tue Sep 27 16:10:06 UTC 2022)
(GPL source distribution)
Java Runtime: Java(TM) SE Runtime Environment
JVM: Java HotSpot(TM) 64-Bit Server VM
Default Encoding: UTF-8
Language: en
Country: US
--></g></svg>