<?xml version="1.0" encoding="us-ascii" standalone="no"?><svg xmlns="http://www.w3.org/2000/svg" xmlns:xlink="http://www.w3.org/1999/xlink" contentStyleType="text/css" height="363px" preserveAspectRatio="none" style="width:609px;height:363px;background:#FFFFFF;" version="1.1" viewBox="0 0 609 363" width="609px" zoomAndPan="magnify"><defs/><g><line style="stroke:#181818;stroke-width:0.5;stroke-dasharray:5.0,5.0;" x1="30" x2="30" y1="36.2969" y2="328.3594"/><line style="stroke:#181818;stroke-width:0.5;stroke-dasharray:5.0,5.0;" x1="205.5" x2="205.5" y1="36.2969" y2="328.3594"/><line style="stroke:#181818;stroke-width:0.5;stroke-dasharray:5.0,5.0;" x1="380.5" x2="380.5" y1="36.2969" y2="328.3594"/><line style="stroke:#181818;stroke-width:0.5;stroke-dasharray:5.0,5.0;" x1="518.5" x2="518.5" y1="36.2969" y2="328.3594"/><rect fill="#E2E2F0" height="30.2969" rx="2.5" ry="2.5" style="stroke:#181818;stroke-width:0.5;" width="51" x="5" y="5"/><text fill="#000000" font-family="sans-serif" font-size="14" lengthAdjust="spacing" textLength="37" x="12" y="24.9951">Glide</text><rect fill="#E2E2F0" height="30.2969" rx="2.5" ry="2.5" style="stroke:#181818;stroke-width:0.5;" width="51" x="5" y="327.3594"/><text fill="#000000" font-family="sans-serif" font-size="14" lengthAdjust="spacing" textLength="37" x="12" y="347.3545">Glide</text><rect fill="#E2E2F0" height="30.2969" rx="2.5" ry="2.5" style="stroke:#181818;stroke-width:0.5;" width="188" x="111.5" y="5"/><text fill="#000000" font-family="sans-serif" font-size="14" lengthAdjust="spacing" textLength="174" x="118.5" y="24.9951">RequestManagerFactory</text><rect fill="#E2E2F0" height="30.2969" rx="2.5" ry="2.5" style="stroke:#181818;stroke-width:0.5;" width="188" x="111.5" y="327.3594"/><text fill="#000000" font-family="sans-serif" font-size="14" lengthAdjust="spacing" textLength="174" x="118.5" y="347.3545">RequestManagerFactory</text><rect fill="#E2E2F0" height="30.2969" rx="2.5" ry="2.5" style="stroke:#181818;stroke-width:0.5;" width="134" x="313.5" y="5"/><text fill="#000000" font-family="sans-serif" font-size="14" lengthAdjust="spacing" textLength="120" x="320.5" y="24.9951">RequestManager</text><rect fill="#E2E2F0" height="30.2969" rx="2.5" ry="2.5" style="stroke:#181818;stroke-width:0.5;" width="134" x="313.5" y="327.3594"/><text fill="#000000" font-family="sans-serif" font-size="14" lengthAdjust="spacing" textLength="120" x="320.5" y="347.3545">RequestManager</text><rect fill="#E2E2F0" height="30.2969" rx="2.5" ry="2.5" style="stroke:#181818;stroke-width:0.5;" width="123" x="457.5" y="5"/><text fill="#000000" font-family="sans-serif" font-size="14" lengthAdjust="spacing" textLength="109" x="464.5" y="24.9951">RequestBuilder</text><rect fill="#E2E2F0" height="30.2969" rx="2.5" ry="2.5" style="stroke:#181818;stroke-width:0.5;" width="123" x="457.5" y="327.3594"/><text fill="#000000" font-family="sans-serif" font-size="14" lengthAdjust="spacing" textLength="109" x="464.5" y="347.3545">RequestBuilder</text><line style="stroke:#181818;stroke-width:1.0;" x1="30.5" x2="72.5" y1="67.4297" y2="67.4297"/><line style="stroke:#181818;stroke-width:1.0;" x1="72.5" x2="72.5" y1="67.4297" y2="80.4297"/><line style="stroke:#181818;stroke-width:1.0;" x1="31.5" x2="72.5" y1="80.4297" y2="80.4297"/><polygon fill="#181818" points="41.5,76.4297,31.5,80.4297,41.5,84.4297,37.5,80.4297" style="stroke:#181818;stroke-width:1.0;"/><text fill="#000000" font-family="sans-serif" font-size="13" lengthAdjust="spacing" textLength="27" x="37.5" y="62.3638">with</text><polygon fill="#181818" points="193.5,105.5625,203.5,109.5625,193.5,113.5625,197.5,109.5625" style="stroke:#181818;stroke-width:1.0;"/><line style="stroke:#181818;stroke-width:1.0;" x1="30.5" x2="199.5" y1="109.5625" y2="109.5625"/><text fill="#000000" font-family="sans-serif" font-size="13" lengthAdjust="spacing" textLength="30" x="37.5" y="104.4966">build</text><polygon fill="#181818" points="368.5,134.6953,378.5,138.6953,368.5,142.6953,372.5,138.6953" style="stroke:#181818;stroke-width:1.0;"/><line style="stroke:#181818;stroke-width:1.0;" x1="205.5" x2="374.5" y1="138.6953" y2="138.6953"/><text fill="#000000" font-family="sans-serif" font-size="13" lengthAdjust="spacing" textLength="39" x="212.5" y="133.6294">&lt;init&gt;</text><polygon fill="#181818" points="216.5,163.8281,206.5,167.8281,216.5,171.8281,212.5,167.8281" style="stroke:#181818;stroke-width:1.0;"/><line style="stroke:#181818;stroke-width:1.0;" x1="210.5" x2="379.5" y1="167.8281" y2="167.8281"/><text fill="#000000" font-family="sans-serif" font-size="13" lengthAdjust="spacing" textLength="151" x="222.5" y="162.7622">return RequestManager</text><polygon fill="#181818" points="41.5,192.9609,31.5,196.9609,41.5,200.9609,37.5,196.9609" style="stroke:#181818;stroke-width:1.0;"/><line style="stroke:#181818;stroke-width:1.0;" x1="35.5" x2="204.5" y1="196.9609" y2="196.9609"/><text fill="#000000" font-family="sans-serif" font-size="13" lengthAdjust="spacing" textLength="151" x="47.5" y="191.895">return RequestManager</text><polygon fill="#181818" points="507,222.0938,517,226.0938,507,230.0938,511,226.0938" style="stroke:#181818;stroke-width:1.0;"/><line style="stroke:#181818;stroke-width:1.0;" x1="380.5" x2="513" y1="226.0938" y2="226.0938"/><text fill="#000000" font-family="sans-serif" font-size="13" lengthAdjust="spacing" textLength="27" x="387.5" y="221.0278">load</text><line style="stroke:#181818;stroke-width:1.0;" x1="519" x2="561" y1="255.2266" y2="255.2266"/><line style="stroke:#181818;stroke-width:1.0;" x1="561" x2="561" y1="255.2266" y2="268.2266"/><line style="stroke:#181818;stroke-width:1.0;" x1="520" x2="561" y1="268.2266" y2="268.2266"/><polygon fill="#181818" points="530,264.2266,520,268.2266,530,272.2266,526,268.2266" style="stroke:#181818;stroke-width:1.0;"/><text fill="#000000" font-family="sans-serif" font-size="13" lengthAdjust="spacing" textLength="76" x="526" y="250.1606">loadGeneric</text><line style="stroke:#181818;stroke-width:1.0;" x1="519" x2="561" y1="297.3594" y2="297.3594"/><line style="stroke:#181818;stroke-width:1.0;" x1="561" x2="561" y1="297.3594" y2="310.3594"/><line style="stroke:#181818;stroke-width:1.0;" x1="520" x2="561" y1="310.3594" y2="310.3594"/><polygon fill="#181818" points="530,306.3594,520,310.3594,530,314.3594,526,310.3594" style="stroke:#181818;stroke-width:1.0;"/><text fill="#000000" font-family="sans-serif" font-size="13" lengthAdjust="spacing" textLength="57" x="526" y="292.2935">setModel</text><!--SRC=[Sy_9J4bLqBLJS0Snh1JACqiokDnXWa6fXQMfnIM-YNc9wQb5Red99Vb5bGfM2acbcJafNDXbCRG1rTjavcMMsA5fm6T1KMf9QL4UcZHk2o4E9auRahLE86-07PYJdvYYm8KcZ4kXUsfUQb5cCZ7AYrDBVFDJKdC0]--></g></svg>